<svg width="482" height="152" xmlns="http://www.w3.org/2000/svg" xmlns:xlink="http://www.w3.org/1999/xlink" xml:space="preserve" overflow="hidden"><defs><clipPath id="clip0"><rect x="3668" y="284" width="482" height="152"/></clipPath><clipPath id="clip1"><rect x="3668" y="285" width="482" height="150"/></clipPath><clipPath id="clip2"><rect x="3668" y="285" width="482" height="150"/></clipPath><clipPath id="clip3"><rect x="3668" y="285" width="482" height="150"/></clipPath></defs><g clip-path="url(#clip0)" transform="translate(-3668 -284)"><g clip-path="url(#clip1)"><g clip-path="url(#clip2)"><g clip-path="url(#clip3)"><path d="M453.173 53.52 449.873 53.52 449.873 52.3533 457.76 52.3533 457.76 53.52 454.46 53.52 454.46 62.18 453.173 62.18 453.173 53.52Z" fill="#1C354F" fill-rule="nonzero" fill-opacity="1" transform="matrix(1.00417 0 0 1 3668 285)"/><path d="M461.693 56.4333C461.247 55.7933 460.813 55.1467 460.38 54.4933L460.353 54.5067C460.367 55.0933 460.38 55.8333 460.38 56.64L460.38 62.18 459.133 62.18 459.133 52.3533 460.38 52.3533 463.867 57.3467 467.353 52.3533 468.587 52.3533 468.587 62.18 467.3 62.18 467.3 56.64C467.3 55.84 467.313 55.0933 467.327 54.5067L467.3 54.4933C466.867 55.1467 466.433 55.7933 465.987 56.4333L463.84 59.5 461.693 56.4333Z" fill="#1C354F" fill-rule="nonzero" fill-opacity="1" transform="matrix(1.00417 0 0 1 3668 285)"/><path d="M54.74 51.22C67.1667 51.22 76.1533 55.5267 84.52 62.6667 85.5067 63.6533 85.6267 65.1267 84.64 66.1133L81.32 69.4333C80.3333 70.6667 79.3533 70.54 78.12 69.3067 71.72 63.7667 62.9867 60.08 54.6133 60.08 35.1733 60.08 20.28 76.4467 20.28 95.52 20.28 114.473 35.1733 130.833 54.6133 130.833 65.32 130.833 71.5933 126.527 78.12 121.607 79.3467 120.62 80.3333 120.747 81.0733 121.24L84.7667 124.56C85.7533 125.3 85.5067 127.02 84.64 127.88 76.2733 136 65.6933 139.813 54.74 139.813 30.1267 139.813 10.32 120.247 10.32 95.64 10.32 71.0333 30.1333 51.22 54.74 51.22Z" fill="#1C354F" fill-rule="nonzero" fill-opacity="1" transform="matrix(1.00417 0 0 1 3668 285)"/><path d="M215.573 52.94C215.82 51.9533 216.807 51.22 217.787 51.22L219.753 51.22C220.613 51.22 221.6 51.8333 221.847 52.5733L246.213 120.373 246.827 120.373 270.82 52.5733C271.067 51.84 272.053 51.22 272.913 51.22L274.88 51.22C275.867 51.22 276.847 51.96 277.093 52.94L292.967 135.633C293.34 137.353 292.6 138.587 290.753 138.587L285.827 138.587C284.84 138.587 283.86 137.727 283.613 136.867L272.667 73.4933 272.173 73.4933 249.533 138.467C249.287 139.2 248.18 139.82 247.44 139.82L245.227 139.82C244.487 139.82 243.38 139.207 243.133 138.467L220.247 73.4933 219.753 73.4933 209.047 136.867C208.927 137.727 207.813 138.587 206.833 138.587L201.913 138.587C200.067 138.587 199.327 137.353 199.7 135.633L215.573 52.94Z" fill="#1C354F" fill-rule="nonzero" fill-opacity="1" transform="matrix(1.00417 0 0 1 3668 285)"/><path d="M318.733 54.7867C318.733 53.5533 319.72 52.4467 321.073 52.4467L348.267 52.4467C363.4 52.4467 375.827 64.7533 375.827 79.64 375.827 94.9 363.4 107.327 348.387 107.327L328.08 107.327 328.08 136.247C328.08 137.48 326.973 138.587 325.74 138.587L321.067 138.587C319.713 138.587 318.727 137.48 318.727 136.247L318.727 54.7867ZM347.647 98.2267C357.74 98.2267 366.353 89.98 366.353 79.4 366.353 69.4333 357.74 61.8067 347.647 61.8067L328.08 61.8067 328.08 98.2267 347.647 98.2267Z" fill="#1C354F" fill-rule="nonzero" fill-opacity="1" transform="matrix(1.00417 0 0 1 3668 285)"/><path d="M384.067 117.3 384.067 112.747 430.7 54.3C431.073 53.9333 431.44 53.56 432.547 53.56L435.007 53.56C436.24 53.56 437.347 54.5467 437.347 55.9L437.473 112.133 447.44 112.133C448.793 112.133 449.78 113.12 449.78 114.347L449.78 117.053C449.78 118.287 448.8 119.393 447.44 119.393L437.467 119.393 437.467 136.253C437.467 137.487 436.36 138.593 435.127 138.593L430.94 138.593C429.707 138.593 428.6 137.487 428.6 136.253L428.6 119.64 386.4 119.64C385.047 119.633 384.067 118.527 384.067 117.3ZM429.1 112.007 429.1 69.1867 394.4 112.007 429.1 112.007Z" fill="#1C354F" fill-rule="nonzero" fill-opacity="1" transform="matrix(1.00417 0 0 1 3668 285)"/><path d="M183.94 135.387 146.78 52.5733C146.413 51.84 145.8 51.22 144.687 51.22L143.453 51.22C142.347 51.22 141.733 51.8333 141.36 52.5733L103.953 135.387C103.213 136.987 104.2 138.587 106.047 138.587L110.973 138.587C112.08 138.587 112.82 137.847 113.067 137.233L143.46 68.94 144.447 68.94C150.48 82.3533 174.84 137.233 174.84 137.233 175.087 137.847 175.827 138.587 176.933 138.587L181.86 138.587C183.693 138.587 184.68 136.987 183.94 135.387Z" fill="#1C354F" fill-rule="nonzero" fill-opacity="1" transform="matrix(1.00417 0 0 1 3668 285)"/><path d="M150.287 16.52C150.287 20.0215 147.448 22.86 143.947 22.86 140.445 22.86 137.607 20.0215 137.607 16.52 137.607 13.0185 140.445 10.18 143.947 10.18 147.448 10.18 150.287 13.0185 150.287 16.52Z" fill="#0099A8" fill-rule="nonzero" fill-opacity="1" transform="matrix(1.00417 0 0 1 3668 285)"/><path d="M168.84 20.18C168.84 23.6815 166.001 26.52 162.5 26.52 158.999 26.52 156.16 23.6815 156.16 20.18 156.16 16.6785 158.999 13.84 162.5 13.84 166.001 13.84 168.84 16.6785 168.84 20.18Z" fill="#009F96" fill-rule="nonzero" fill-opacity="1" transform="matrix(1.00417 0 0 1 3668 285)"/><path d="M131.74 20.18C131.74 23.6815 128.901 26.52 125.4 26.52 121.899 26.52 119.06 23.6815 119.06 20.18 119.06 16.6785 121.899 13.84 125.4 13.84 128.901 13.84 131.74 16.6785 131.74 20.18Z" fill="#0196A2" fill-rule="nonzero" fill-opacity="1" transform="matrix(1.00417 0 0 1 3668 285)"/><path d="M184.907 31.8067C184.907 35.3082 182.068 38.1467 178.567 38.1467 175.065 38.1467 172.227 35.3082 172.227 31.8067 172.227 28.3052 175.065 25.4667 178.567 25.4667 182.068 25.4667 184.907 28.3052 184.907 31.8067Z" fill="#1D9A7E" fill-rule="nonzero" fill-opacity="1" transform="matrix(1.00417 0 0 1 3668 285)"/><path d="M115.667 31.8067C115.667 35.3082 112.828 38.1467 109.327 38.1467 105.825 38.1467 102.987 35.3082 102.987 31.8067 102.987 28.3052 105.825 25.4667 109.327 25.4667 112.828 25.4667 115.667 28.3052 115.667 31.8067Z" fill="#0B8593" fill-rule="nonzero" fill-opacity="1" transform="matrix(1.00417 0 0 1 3668 285)"/><path d="M194.313 49.4467C194.313 52.9482 191.475 55.7867 187.973 55.7867 184.472 55.7867 181.633 52.9482 181.633 49.4467 181.633 45.9452 184.472 43.1067 187.973 43.1067 191.475 43.1067 194.313 45.9452 194.313 49.4467Z" fill="#799368" fill-rule="nonzero" fill-opacity="1" transform="matrix(1.00417 0 0 1 3668 285)"/><path d="M106.26 49.4467C106.26 52.9482 103.421 55.7867 99.92 55.7867 96.4185 55.7867 93.58 52.9482 93.58 49.4467 93.58 45.9452 96.4185 43.1067 99.92 43.1067 103.421 43.1067 106.26 45.9452 106.26 49.4467Z" fill="#386879" fill-rule="nonzero" fill-opacity="1" transform="matrix(1.00417 0 0 1 3668 285)"/><path d="M194.313 69.8267C194.313 73.3282 191.475 76.1667 187.973 76.1667 184.472 76.1667 181.633 73.3282 181.633 69.8267 181.633 66.3252 184.472 63.4867 187.973 63.4867 191.475 63.4867 194.313 66.3252 194.313 69.8267Z" fill="#D78036" fill-rule="nonzero" fill-opacity="1" transform="matrix(1.00417 0 0 1 3668 285)"/><path d="M106.9 69.8267C106.9 73.3282 104.061 76.1667 100.56 76.1667 97.0585 76.1667 94.22 73.3282 94.22 69.8267 94.22 66.3252 97.0585 63.4867 100.56 63.4867 104.061 63.4867 106.9 66.3252 106.9 69.8267Z" fill="#304D62" fill-rule="nonzero" fill-opacity="1" transform="matrix(1.00417 0 0 1 3668 285)"/><path d="M184.253 87.72C184.253 91.2215 181.415 94.06 177.913 94.06 174.412 94.06 171.573 91.2215 171.573 87.72 171.573 84.2185 174.412 81.38 177.913 81.38 181.415 81.38 184.253 84.2185 184.253 87.72Z" fill="#FF7F40" fill-rule="nonzero" fill-opacity="1" transform="matrix(1.00417 0 0 1 3668 285)"/><path d="M115.667 87.72C115.667 91.2215 112.828 94.06 109.327 94.06 105.825 94.06 102.987 91.2215 102.987 87.72 102.987 84.2185 105.825 81.38 109.327 81.38 112.828 81.38 115.667 84.2185 115.667 87.72Z" fill="#203952" fill-rule="nonzero" fill-opacity="1" transform="matrix(1.00417 0 0 1 3668 285)"/><path d="M150.287 103.553C150.287 107.055 147.448 109.893 143.947 109.893 140.445 109.893 137.607 107.055 137.607 103.553 137.607 100.052 140.445 97.2133 143.947 97.2133 147.448 97.2133 150.287 100.052 150.287 103.553Z" fill="#1C354F" fill-rule="nonzero" fill-opacity="1" transform="matrix(1.00417 0 0 1 3668 285)"/></g></g></g></g></svg>